<mxfile host="app.diagrams.net" modified="2023-10-17T04:50:09.797Z" agent="Mozilla/5.0 (Windows NT 10.0; Win64; x64; rv:109.0) Gecko/20100101 Firefox/118.0" etag="qjwIbwUPb9HGROEf4aDf" version="22.0.4" type="github">
  <diagram name="Page-1" id="2MmdO1adVtq-I-U4DkCO">
    <mxGraphModel dx="1760" dy="940" grid="1" gridSize="10" guides="1" tooltips="1" connect="1" arrows="1" fold="1" page="1" pageScale="1" pageWidth="850" pageHeight="1100" math="0" shadow="0">
      <root>
        <mxCell id="0" />
        <mxCell id="1" parent="0" />
        <mxCell id="_Pc335UXt35GL75y6HPf-3" value="" style="edgeStyle=orthogonalEdgeStyle;rounded=0;orthogonalLoop=1;jettySize=auto;html=1;strokeWidth=2;" edge="1" parent="1" source="_Pc335UXt35GL75y6HPf-1" target="_Pc335UXt35GL75y6HPf-2">
          <mxGeometry relative="1" as="geometry" />
        </mxCell>
        <mxCell id="_Pc335UXt35GL75y6HPf-1" value="&lt;span&gt;&lt;font style=&quot;font-size: 13px;&quot;&gt;START&lt;/font&gt;&lt;/span&gt;" style="rounded=1;whiteSpace=wrap;html=1;arcSize=50;fontStyle=1;strokeWidth=2;" vertex="1" parent="1">
          <mxGeometry x="365" y="20" width="145" height="60" as="geometry" />
        </mxCell>
        <mxCell id="_Pc335UXt35GL75y6HPf-6" value="" style="edgeStyle=orthogonalEdgeStyle;rounded=0;orthogonalLoop=1;jettySize=auto;html=1;strokeWidth=2;" edge="1" parent="1" source="_Pc335UXt35GL75y6HPf-2" target="_Pc335UXt35GL75y6HPf-5">
          <mxGeometry relative="1" as="geometry" />
        </mxCell>
        <mxCell id="_Pc335UXt35GL75y6HPf-2" value="&lt;div&gt;&lt;b&gt;Lo&lt;/b&gt;&lt;/div&gt;&lt;div&gt;&lt;b&gt;Phi&lt;/b&gt;&lt;/div&gt;&lt;div&gt;&lt;b&gt;d&lt;br&gt;&lt;/b&gt;&lt;/div&gt;" style="shape=parallelogram;perimeter=parallelogramPerimeter;whiteSpace=wrap;html=1;fixedSize=1;rounded=1;arcSize=11;fontStyle=1;strokeWidth=2;" vertex="1" parent="1">
          <mxGeometry x="366.25" y="130" width="142.5" height="70" as="geometry" />
        </mxCell>
        <mxCell id="_Pc335UXt35GL75y6HPf-10" value="" style="edgeStyle=orthogonalEdgeStyle;rounded=0;orthogonalLoop=1;jettySize=auto;html=1;strokeWidth=2;" edge="1" parent="1" source="_Pc335UXt35GL75y6HPf-5" target="_Pc335UXt35GL75y6HPf-9">
          <mxGeometry relative="1" as="geometry" />
        </mxCell>
        <mxCell id="_Pc335UXt35GL75y6HPf-5" value="&lt;b&gt;Lo = phi x d&lt;/b&gt;" style="rhombus;whiteSpace=wrap;html=1;rounded=1;arcSize=11;fontStyle=1;strokeWidth=2;" vertex="1" parent="1">
          <mxGeometry x="382.5" y="250" width="110" height="100" as="geometry" />
        </mxCell>
        <mxCell id="_Pc335UXt35GL75y6HPf-13" value="" style="edgeStyle=orthogonalEdgeStyle;rounded=0;orthogonalLoop=1;jettySize=auto;html=1;strokeWidth=2;" edge="1" parent="1" source="_Pc335UXt35GL75y6HPf-9" target="_Pc335UXt35GL75y6HPf-12">
          <mxGeometry relative="1" as="geometry" />
        </mxCell>
        <mxCell id="_Pc335UXt35GL75y6HPf-9" value="&lt;font style=&quot;font-size: 13px;&quot;&gt;phi x d&lt;/font&gt;" style="whiteSpace=wrap;html=1;rounded=1;arcSize=0;fontStyle=1;strokeWidth=2;" vertex="1" parent="1">
          <mxGeometry x="377.5" y="390" width="120" height="60" as="geometry" />
        </mxCell>
        <mxCell id="_Pc335UXt35GL75y6HPf-15" value="" style="edgeStyle=orthogonalEdgeStyle;rounded=0;orthogonalLoop=1;jettySize=auto;html=1;strokeWidth=2;" edge="1" parent="1" source="_Pc335UXt35GL75y6HPf-12" target="_Pc335UXt35GL75y6HPf-14">
          <mxGeometry relative="1" as="geometry" />
        </mxCell>
        <mxCell id="_Pc335UXt35GL75y6HPf-12" value="&lt;b&gt;Lo&lt;/b&gt;" style="shape=parallelogram;perimeter=parallelogramPerimeter;whiteSpace=wrap;html=1;fixedSize=1;rounded=1;arcSize=0;fontStyle=1;strokeWidth=2;" vertex="1" parent="1">
          <mxGeometry x="377.5" y="500" width="120" height="60" as="geometry" />
        </mxCell>
        <mxCell id="_Pc335UXt35GL75y6HPf-14" value="END" style="whiteSpace=wrap;html=1;rounded=1;arcSize=50;fontStyle=1;strokeWidth=2;" vertex="1" parent="1">
          <mxGeometry x="377.5" y="670" width="120" height="60" as="geometry" />
        </mxCell>
      </root>
    </mxGraphModel>
  </diagram>
</mxfile>
